[Parsed_showinfo_1 @ 0x5ae508c87600] n:   0 pts:      0 pts_time:0       duration:    512 duration_time:0.0416667 fmt:yuv420p cl:left sar:0/1 s:1920x1200 i:P iskey:1 type:I checksum:DC5FFC8B plane_checksum:[DC3C92AD CAC96362 90EA067C] mean:[11 127 130] stdev:[19.7 1.9 3.7]
frame=    0 fps=0.0 q=-0.0 size=       0kB time=00:00:00.00 bitrate=N/A speed=   0x    [Parsed_showinfo_1 @ 0x5ae508c87600] n:   1 pts:    512 pts_time:0.0416667 duration:    512 duration_time:0.0416667 fmt:yuv420p cl:left sar:0/1 s:1920x1200 i:P iskey:0 type:B checksum:3B50D5C1 plane_checksum:[0C7B6ACF E6D474CA 0692F619] mean:[11 127 130] stdev:[19.7 1.9 3.7]
[Parsed_showinfo_1 @ 0x5ae508c87600] n:   2 pts:   1024 pts_time:0.0833333 duration:    512 duration_time:0.0416667 fmt:yuv420p cl:left sar:0/1 s:1920x1200 i:P iskey:0 type:B checksum:FE70E76D plane_checksum:[440205EE 13405C02 FA99857D] mean:[10 127 130] stdev:[18.7 1.4 3.8]
[Parsed_showinfo_1 @ 0x5ae508c87600] n:   3 pts:   1536 pts_time:0.125   duration:    512 duration_time:0.0416667 fmt:yuv420p cl:left sar:0/1 s:1920x1200 i:P iskey:0 type:B checksum:1E8D310E plane_checksum:[DAE3A02A 7F4DE27F 9AABAE47] mean:[10 127 130] stdev:[18.6 1.3 3.8]
[Parsed_showinfo_1 @ 0x5ae508c87600] n:   4 pts:   2048 pts_time:0.166667 duration:    512 duration_time:0.0416667 fmt:yuv420p cl:left sar:0/1 s:1920x1200 i:P iskey:0 type:P checksum:0940398F plane_checksum:[1871EB46 C600E20E D4916C1D] mean:[10 127 130] stdev:[18.5 1.3 3.8]
[Parsed_showinfo_1 @ 0x5ae508c87600] n:   5 pts:   2560 pts_time:0.208333 duration:    512 duration_time:0.0416667 fmt:yuv420p cl:left sar:0/1 s:1920x1200 i:P iskey:0 type:B checksum:2DD1886F plane_checksum:[7598FDC5 2FB5F19A 3E3598F2] mean:[10 127 130] stdev:[18.5 1.3 3.8]
[Parsed_showinfo_1 @ 0x5ae508c87600] n:   6 pts:   3072 pts_time:0.25    duration:    512 duration_time:0.0416667 fmt:yuv420p cl:left sar:0/1 s:1920x1200 i:P iskey:0 type:B checksum:2C893A40 plane_checksum:[6659B4FA 7005ED1D 578C980B] mean:[10 127 130] stdev:[18.5 1.3 3.8]
[Parsed_showinfo_1 @ 0x5ae508c87600] n:   7 pts:   3584 pts_time:0.291667 duration:    512 duration_time:0.0416667 fmt:yuv420p cl:left sar:0/1 s:1920x1200 i:P iskey:0 type:B checksum:4B698707 plane_checksum:[FFDDF450 8B1EF31C 7D5B9F7D] mean:[10 127 130] stdev:[18.5 1.3 3.8]
[Parsed_showinfo_1 @ 0x5ae508c87600] n:   8 pts:   4096 pts_time:0.333333 duration:    512 duration_time:0.0416667 fmt:yuv420p cl:left sar:0/1 s:1920x1200 i:P iskey:0 type:P checksum:2F176B91 plane_checksum:[55BBF58E 2DCDE4E7 6C5D90FE] mean:[10 127 130] stdev:[18.5 1.3 3.8]
[Parsed_showinfo_1 @ 0x5ae508c87600] n:   9 pts:   4608 pts_time:0.375   duration:    512 duration_time:0.0416667 fmt:yuv420p cl:left sar:0/1 s:1920x1200 i:P iskey:0 type:I checksum:05391ECD plane_checksum:[04F86B2B 4B9EA942 2D970A51] mean:[159 130 130] stdev:[66.2 7.1 9.9]
[Parsed_showinfo_1 @ 0x5ae508c87600] n:  10 pts:   5120 pts_time:0.416667 duration:    512 duration_time:0.0416667 fmt:yuv420p cl:left sar:0/1 s:1920x1200 i:P iskey:0 type:B checksum:F1DCA15D plane_checksum:[319BA085 CCAC7057 2D939072] mean:[159 130 130] stdev:[66.2 7.1 9.9]
[Parsed_showinfo_1 @ 0x5ae508c87600] n:  11 pts:   5632 pts_time:0.458333 duration:    512 duration_time:0.0416667 fmt:yuv420p cl:left sar:0/1 s:1920x1200 i:P iskey:0 type:B checksum:AC111E27 plane_checksum:[B1AF2CA8 4B856FCF 9FC081A1] mean:[159 130 130] stdev:[66.1 7.1 9.9]
[Parsed_showinfo_1 @ 0x5ae508c87600] n:  12 pts:   6144 pts_time:0.5     duration:    512 duration_time:0.0416667 fmt:yuv420p cl:left sar:0/1 s:1920x1200 i:P iskey:0 type:B checksum:0FCBD6CE plane_checksum:[D66E1934 4ECC27EC 1B4795AE] mean:[159 130 130] stdev:[66.1 7.1 9.9]
[Parsed_showinfo_1 @ 0x5ae508c87600] n:  13 pts:   6656 pts_time:0.541667 duration:    512 duration_time:0.0416667 fmt:yuv420p cl:left sar:0/1 s:1920x1200 i:P iskey:0 type:B checksum:47981FE1 plane_checksum:[E839540E 36B622ED 7920A8D7] mean:[159 130 130] stdev:[66.1 7.1 9.9]
[Parsed_showinfo_1 @ 0x5ae508c87600] n:  14 pts:   7168 pts_time:0.583333 duration:    512 duration_time:0.0416667 fmt:yuv420p cl:left sar:0/1 s:1920x1200 i:P iskey:0 type:P checksum:32005F6A plane_checksum:[1785E3FB C6C80968 717871F8] mean:[159 130 130] stdev:[66.1 7.1 9.9]
[Parsed_showinfo_1 @ 0x5ae508c87600] n:  15 pts:   7680 pts_time:0.625   duration:    512 duration_time:0.0416667 fmt:yuv420p cl:left sar:0/1 s:1920x1200 i:P iskey:0 type:B checksum:455D776B plane_checksum:[5BE1982B 279909ED 0366D544] mean:[159 130 130] stdev:[66.0 7.1 9.9]
[Parsed_showinfo_1 @ 0x5ae508c87600] n:  16 pts:   8192 pts_time:0.666667 duration:    512 duration_time:0.0416667 fmt:yuv420p cl:left sar:0/1 s:1920x1200 i:P iskey:0 type:B checksum:5EC3760C plane_checksum:[224C740E E98580F9 C26080F6] mean:[158 130 130] stdev:[66.2 7.1 9.9]
[Parsed_showinfo_1 @ 0x5ae508c87600] n:  17 pts:   8704 pts_time:0.708333 duration:    512 duration_time:0.0416667 fmt:yuv420p cl:left sar:0/1 s:1920x1200 i:P iskey:0 type:B checksum:F6DC6E67 plane_checksum:[AA3EB50D EF35E0C3 AFF3D879] mean:[156 130 129] stdev:[66.2 7.2 9.9]
[Parsed_showinfo_1 @ 0x5ae508c87600] n:  18 pts:   9216 pts_time:0.75    duration:    512 duration_time:0.0416667 fmt:yuv420p cl:left sar:0/1 s:1920x1200 i:P iskey:0 type:P checksum:EBA7953D plane_checksum:[D955B311 04EA8EFA D6035323] mean:[154 131 128] stdev:[66.5 7.2 10.0]
[Parsed_showinfo_1 @ 0x5ae508c87600] n:  19 pts:   9728 pts_time:0.791667 duration:    512 duration_time:0.0416667 fmt:yuv420p cl:left sar:0/1 s:1920x1200 i:P iskey:0 type:B checksum:7FE82A4D plane_checksum:[9EC5E21B 918BF06D EA2F57A7] mean:[152 131 128] stdev:[66.8 7.4 10.0]
[Parsed_showinfo_1 @ 0x5ae508c87600] n:  20 pts:  10240 pts_time:0.833333 duration:    512 duration_time:0.0416667 fmt:yuv420p cl:left sar:0/1 s:1920x1200 i:P iskey:0 type:B checksum:ABCEF532 plane_checksum:[91AF3E21 D58B014C 8C18B5C5] mean:[150 131 128] stdev:[67.0 7.4 10.0]
[Parsed_showinfo_1 @ 0x5ae508c87600] n:  21 pts:  10752 pts_time:0.875   duration:    512 duration_time:0.0416667 fmt:yuv420p cl:left sar:0/1 s:1920x1200 i:P iskey:0 type:B checksum:9CE8C7F4 plane_checksum:[ADD4D30A 56407F82 25087559] mean:[148 131 128] stdev:[67.0 7.5 10.1]
[Parsed_showinfo_1 @ 0x5ae508c87600] n:  22 pts:  11264 pts_time:0.916667 duration:    512 duration_time:0.0416667 fmt:yuv420p cl:left sar:0/1 s:1920x1200 i:P iskey:0 type:P checksum:A0A709EA plane_checksum:[02BB9A87 952E047A 38956ADA] mean:[146 131 127] stdev:[67.2 7.5 10.0]
[Parsed_showinfo_1 @ 0x5ae508c87600] n:  23 pts:  11776 pts_time:0.958333 duration:    512 duration_time:0.0416667 fmt:yuv420p cl:left sar:0/1 s:1920x1200 i:P iskey:0 type:B checksum:5A8FDC60 plane_checksum:[470F6FB8 1DF42466 41F94842] mean:[144 131 127] stdev:[67.2 7.6 10.0]
[Parsed_showinfo_1 @ 0x5ae508c87600] n:  24 pts:  12288 pts_time:1       duration:    512 duration_time:0.0416667 fmt:yuv420p cl:left sar:0/1 s:1920x1200 i:P iskey:0 type:B checksum:A1C65F1B plane_checksum:[C94577F2 284FE5B5 12270165] mean:[143 131 127] stdev:[67.1 7.6 10.0]
[Parsed_showinfo_1 @ 0x5ae508c87600] n:  25 pts:  12800 pts_time:1.04167 duration:    512 duration_time:0.0416667 fmt:yuv420p cl:left sar:0/1 s:1920x1200 i:P iskey:0 type:B checksum:B2BBAF85 plane_checksum:[8E976C67 AE7B3285 449B1099] mean:[142 131 127] stdev:[67.2 7.5 10.0]
[Parsed_showinfo_1 @ 0x5ae508c87600] n:  26 pts:  13312 pts_time:1.08333 duration:    512 duration_time:0.0416667 fmt:yuv420p cl:left sar:0/1 s:1920x1200 i:P iskey:0 type:B checksum:80FB0956 plane_checksum:[2BC2D21B 8323CADF 4CA66C3E] mean:[140 131 127] stdev:[67.0 7.6 10.1]
[Parsed_showinfo_1 @ 0x5ae508c87600] n:  27 pts:  13824 pts_time:1.125   duration:    512 duration_time:0.0416667 fmt:yuv420p cl:left sar:0/1 s:1920x1200 i:P iskey:0 type:P checksum:C847034B plane_checksum:[2D05A700 1E6CA152 A4DCBADB] mean:[139 132 126] stdev:[66.9 7.5 10.0]
[Parsed_showinfo_1 @ 0x5ae508c87600] n:  28 pts:  14336 pts_time:1.16667 duration:    512 duration_time:0.0416667 fmt:yuv420p cl:left sar:0/1 s:1920x1200 i:P iskey:0 type:B checksum:DD339610 plane_checksum:[C5F4412D BCB2C5DD E40B8EF7] mean:[138 132 126] stdev:[67.0 7.5 9.9]
[Parsed_showinfo_1 @ 0x5ae508c87600] n:  29 pts:  14848 pts_time:1.20833 duration:    512 duration_time:0.0416667 fmt:yuv420p cl:left sar:0/1 s:1920x1200 i:P iskey:0 type:B checksum:9ECC0DB8 plane_checksum:[61B06969 DC552FF6 443F744A] mean:[136 132 126] stdev:[67.5 7.5 9.9]
[Parsed_showinfo_1 @ 0x5ae508c87600] n:  30 pts:  15360 pts_time:1.25    duration:    512 duration_time:0.0416667 fmt:yuv420p cl:left sar:0/1 s:1920x1200 i:P iskey:0 type:B checksum:33C52B6E plane_checksum:[BB7D9856 AC9D64CF E0692E3A] mean:[135 132 126] stdev:[67.3 7.5 9.9]
[Parsed_showinfo_1 @ 0x5ae508c87600] n:  31 pts:  15872 pts_time:1.29167 duration:    512 duration_time:0.0416667 fmt:yuv420p cl:left sar:0/1 s:1920x1200 i:P iskey:0 type:P checksum:39DFA301 plane_checksum:[5362BFCA F29D4833 28379AF5] mean:[134 132 126] stdev:[67.1 7.4 9.9]
[Parsed_showinfo_1 @ 0x5ae508c87600] n:  32 pts:  16384 pts_time:1.33333 duration:    512 duration_time:0.0416667 fmt:yuv420p cl:left sar:0/1 s:1920x1200 i:P iskey:0 type:B checksum:FD9DD5C5 plane_checksum:[A63D24B6 B0704AB6 85306659] mean:[133 132 126] stdev:[67.2 7.4 9.7]
[Parsed_showinfo_1 @ 0x5ae508c87600] n:  33 pts:  16896 pts_time:1.375   duration:    512 duration_time:0.0416667 fmt:yuv420p cl:left sar:0/1 s:1920x1200 i:P iskey:0 type:B checksum:6B63BC52 plane_checksum:[7A53DC21 BFCFA2CD B82B3D55] mean:[132 132 126] stdev:[67.2 7.3 9.7]
[Parsed_showinfo_1 @ 0x5ae508c87600] n:  34 pts:  17408 pts_time:1.41667 duration:    512 duration_time:0.0416667 fmt:yuv420p cl:left sar:0/1 s:1920x1200 i:P iskey:0 type:B checksum:8D276220 plane_checksum:[A9378245 68F11A56 F5D1C576] mean:[131 132 126] stdev:[67.2 7.3 9.6]
[Parsed_showinfo_1 @ 0x5ae508c87600] n:  35 pts:  17920 pts_time:1.45833 duration:    512 duration_time:0.0416667 fmt:yuv420p cl:left sar:0/1 s:1920x1200 i:P iskey:0 type:B checksum:80E3CFA6 plane_checksum:[1919E1E7 DF945BF6 C7E091BA] mean:[131 132 126] stdev:[67.4 7.2 9.5]
[Parsed_showinfo_1 @ 0x5ae508c87600] n:  36 pts:  18432 pts_time:1.5     duration:    512 duration_time:0.0416667 fmt:yuv420p cl:left sar:0/1 s:1920x1200 i:P iskey:0 type:P checksum:404066D8 plane_checksum:[F52F5C12 9600357B D8C5D53C] mean:[130 132 126] stdev:[67.9 7.2 9.5]
[Parsed_showinfo_1 @ 0x5ae508c87600] n:  37 pts:  18944 pts_time:1.54167 duration:    512 duration_time:0.0416667 fmt:yuv420p cl:left sar:0/1 s:1920x1200 i:P iskey:0 type:B checksum:DE004042 plane_checksum:[D51E9D72 C795ADFE 1A2CF4B4] mean:[128 132 125] stdev:[68.0 7.3 9.5]
[Parsed_showinfo_1 @ 0x5ae508c87600] n:  38 pts:  19456 pts_time:1.58333 duration:    512 duration_time:0.0416667 fmt:yuv420p cl:left sar:0/1 s:1920x1200 i:P iskey:0 type:B checksum:F4A5ECD0 plane_checksum:[DAB12DB4 F5C239F4 9CAB8528] mean:[127 132 125] stdev:[68.0 7.3 9.5]
[Parsed_showinfo_1 @ 0x5ae508c87600] n:  39 pts:  19968 pts_time:1.625   duration:    512 duration_time:0.0416667 fmt:yuv420p cl:left sar:0/1 s:1920x1200 i:P iskey:0 type:B checksum:964C5DE0 plane_checksum:[175CC16C 2C018D83 5CBF0EE2] mean:[126 132 125] stdev:[67.8 7.3 9.5]
[Parsed_showinfo_1 @ 0x5ae508c87600] n:  40 pts:  20480 pts_time:1.66667 duration:    512 duration_time:0.0416667 fmt:yuv420p cl:left sar:0/1 s:1920x1200 i:P iskey:0 type:P checksum:9016E8F3 plane_checksum:[65EB71A6 04E2854C 772BF1F2] mean:[125 132 125] stdev:[67.5 7.3 9.6]
[Parsed_showinfo_1 @ 0x5ae508c87600] n:  41 pts:  20992 pts_time:1.70833 duration:    512 duration_time:0.0416667 fmt:yuv420p cl:left sar:0/1 s:1920x1200 i:P iskey:0 type:B checksum:BBBF6E1D plane_checksum:[0F5ECC6B 5CE806D4 0F7B9ACF] mean:[124 132 125] stdev:[67.7 7.4 9.5]
[Parsed_showinfo_1 @ 0x5ae508c87600] n:  42 pts:  21504 pts_time:1.75    duration:    512 duration_time:0.0416667 fmt:yuv420p cl:left sar:0/1 s:1920x1200 i:P iskey:0 type:B checksum:E838E034 plane_checksum:[1242F485 26A164E4 03A286BC] mean:[125 132 125] stdev:[68.3 7.4 9.5]
[Parsed_showinfo_1 @ 0x5ae508c87600] n:  43 pts:  22016 pts_time:1.79167 duration:    512 duration_time:0.0416667 fmt:yuv420p cl:left sar:0/1 s:1920x1200 i:P iskey:0 type:B checksum:AB9F8DD9 plane_checksum:[5CAB865A 9F156EA8 AF2A98C8] mean:[125 132 125] stdev:[68.5 7.4 9.5]
[Parsed_showinfo_1 @ 0x5ae508c87600] n:  44 pts:  22528 pts_time:1.83333 duration:    512 duration_time:0.0416667 fmt:yuv420p cl:left sar:0/1 s:1920x1200 i:P iskey:0 type:P checksum:312E64C4 plane_checksum:[DAF7D4E5 C26A532C 4CFF3CA4] mean:[125 132 125] stdev:[68.7 7.4 9.5]
[Parsed_showinfo_1 @ 0x5ae508c87600] n:  45 pts:  23040 pts_time:1.875   duration:    512 duration_time:0.0416667 fmt:yuv420p cl:left sar:0/1 s:1920x1200 i:P iskey:0 type:B checksum:48BEC8DD plane_checksum:[24DA1E7D B23780EC 24772974] mean:[125 132 125] stdev:[68.8 7.4 9.5]
[Parsed_showinfo_1 @ 0x5ae508c87600] n:  46 pts:  23552 pts_time:1.91667 duration:    512 duration_time:0.0416667 fmt:yuv420p cl:left sar:0/1 s:1920x1200 i:P iskey:0 type:B checksum:08D027B2 plane_checksum:[E6456A71 F05A0FFA B73FAD38] mean:[125 132 125] stdev:[68.8 7.4 9.5]
[Parsed_showinfo_1 @ 0x5ae508c87600] n:  47 pts:  24064 pts_time:1.95833 duration:    512 duration_time:0.0416667 fmt:yuv420p cl:left sar:0/1 s:1920x1200 i:P iskey:0 type:B checksum:B8180FB0 plane_checksum:[16FE57E6 44062010 B37397AB] mean:[123 132 125] stdev:[68.8 7.4 9.5]
[Parsed_showinfo_1 @ 0x5ae508c87600] n:  48 pts:  24576 pts_time:2       duration:    512 duration_time:0.0416667 fmt:yuv420p cl:left sar:0/1 s:1920x1200 i:P iskey:0 type:B checksum:94AEC4D7 plane_checksum:[CFAE21F7 AD62FB3E F78DA793] mean:[123 132 125] stdev:[68.7 7.4 9.4]
[Parsed_showinfo_1 @ 0x5ae508c87600] n:  49 pts:  25088 pts_time:2.04167 duration:    512 duration_time:0.0416667 fmt:yuv420p cl:left sar:0/1 s:1920x1200 i:P iskey:0 type:P checksum:2CC9A2C5 plane_checksum:[4DCE2DB6 A671CEF3 916CA60D] mean:[122 132 125] stdev:[68.7 7.3 9.4]
[Parsed_showinfo_1 @ 0x5ae508c87600] n:  50 pts:  25600 pts_time:2.08333 duration:    512 duration_time:0.0416667 fmt:yuv420p cl:left sar:0/1 s:1920x1200 i:P iskey:0 type:B checksum:9E742FE5 plane_checksum:[A00B8E36 AB01F948 61FCA849] mean:[122 132 125] stdev:[68.8 7.3 9.4]
[Parsed_showinfo_1 @ 0x5ae508c87600] n:  51 pts:  26112 pts_time:2.125   duration:    512 duration_time:0.0416667 fmt:yuv420p cl:left sar:0/1 s:1920x1200 i:P iskey:0 type:B checksum:1A3661E4 plane_checksum:[D3598C5B 837B0746 93E5CE34] mean:[123 132 125] stdev:[68.8 7.3 9.4]
[Parsed_showinfo_1 @ 0x5ae508c87600] n:  52 pts:  26624 pts_time:2.16667 duration:    512 duration_time:0.0416667 fmt:yuv420p cl:left sar:0/1 s:1920x1200 i:P iskey:0 type:B checksum:D55D0C79 plane_checksum:[8CE65C81 9482CA89 6621E551] mean:[124 132 125] stdev:[69.0 7.3 9.4]
[Parsed_showinfo_1 @ 0x5ae508c87600] n:  53 pts:  27136 pts_time:2.20833 duration:    512 duration_time:0.0416667 fmt:yuv420p cl:left sar:0/1 s:1920x1200 i:P iskey:0 type:B checksum:799DAE8C plane_checksum:[92C102C2 D1309CC9 B99A0F01] mean:[123 132 125] stdev:[69.4 7.3 9.3]
[Parsed_showinfo_1 @ 0x5ae508c87600] n:  54 pts:  27648 pts_time:2.25    duration:    512 duration_time:0.0416667 fmt:yuv420p cl:left sar:0/1 s:1920x1200 i:P iskey:0 type:P checksum:EE35AC03 plane_checksum:[954E6B21 4117B053 55439080] mean:[123 132 125] stdev:[69.3 7.3 9.3]
[Parsed_showinfo_1 @ 0x5ae508c87600] n:  55 pts:  28160 pts_time:2.29167 duration:    512 duration_time:0.0416667 fmt:yuv420p cl:left sar:0/1 s:1920x1200 i:P iskey:0 type:B checksum:B1C866EC plane_checksum:[674CF48E F0FEE64F 58948BF1] mean:[123 132 125] stdev:[69.2 7.3 9.3]
[Parsed_showinfo_1 @ 0x5ae508c87600] n:  56 pts:  28672 pts_time:2.33333 duration:    512 duration_time:0.0416667 fmt:yuv420p cl:left sar:0/1 s:1920x1200 i:P iskey:0 type:B checksum:58B47ED3 plane_checksum:[199E3C62 2F3ACAEA 097A7778] mean:[122 132 125] stdev:[69.0 7.2 9.2]
[Parsed_showinfo_1 @ 0x5ae508c87600] n:  57 pts:  29184 pts_time:2.375   duration:    512 duration_time:0.0416667 fmt:yuv420p cl:left sar:0/1 s:1920x1200 i:P iskey:0 type:B checksum:82933D56 plane_checksum:[342C1F4A BA77C5F0 3AB7580D] mean:[121 132 125] stdev:[69.0 7.2 9.2]
[Parsed_showinfo_1 @ 0x5ae508c87600] n:  58 pts:  29696 pts_time:2.41667 duration:    512 duration_time:0.0416667 fmt:yuv420p cl:left sar:0/1 s:1920x1200 i:P iskey:0 type:P checksum:9A8DF9FE plane_checksum:[BF1BD2A7 B5AA15FF 0B601158] mean:[120 132 125] stdev:[69.1 7.1 9.1]
[Parsed_showinfo_1 @ 0x5ae508c87600] n:  59 pts:  30208 pts_time:2.45833 duration:    512 duration_time:0.0416667 fmt:yuv420p cl:left sar:0/1 s:1920x1200 i:P iskey:0 type:B checksum:B029E50B plane_checksum:[689988FE F6A48045 D32CDBB9] mean:[120 132 125] stdev:[69.2 7.1 9.0]
[Parsed_showinfo_1 @ 0x5ae508c87600] n:  60 pts:  30720 pts_time:2.5     duration:    512 duration_time:0.0416667 fmt:yuv420p cl:left sar:0/1 s:1920x1200 i:P iskey:0 type:B checksum:1101565D plane_checksum:[026B4646 0E02B914 05AC56F4] mean:[120 132 125] stdev:[69.4 7.0 9.0]
[Parsed_showinfo_1 @ 0x5ae508c87600] n:  61 pts:  31232 pts_time:2.54167 duration:    512 duration_time:0.0416667 fmt:yuv420p cl:left sar:0/1 s:1920x1200 i:P iskey:0 type:P checksum:375DCEB6 plane_checksum:[4208139A A656018E 3C5EB98E] mean:[120 132 125] stdev:[69.8 6.9 8.9]
[Parsed_showinfo_1 @ 0x5ae508c87600] n:  62 pts:  31744 pts_time:2.58333 duration:    512 duration_time:0.0416667 fmt:yuv420p cl:left sar:0/1 s:1920x1200 i:P iskey:0 type:B checksum:F4312017 plane_checksum:[E85A0F43 031E1829 C7C4F89C] mean:[120 132 125] stdev:[70.0 6.9 8.9]
[Parsed_showinfo_1 @ 0x5ae508c87600] n:  63 pts:  32256 pts_time:2.625   duration:    512 duration_time:0.0416667 fmt:yuv420p cl:left sar:0/1 s:1920x1200 i:P iskey:0 type:B checksum:DE3666ED plane_checksum:[BEF745A5 4A2CFC72 B48824C7] mean:[120 132 125] stdev:[70.2 6.9 8.9]
[Parsed_showinfo_1 @ 0x5ae508c87600] n:  64 pts:  32768 pts_time:2.66667 duration:    512 duration_time:0.0416667 fmt:yuv420p cl:left sar:0/1 s:1920x1200 i:P iskey:0 type:B checksum:B8D7DF84 plane_checksum:[62EEBFF9 2E77DB6C 2FC14410] mean:[121 132 125] stdev:[70.3 6.9 8.9]
[Parsed_showinfo_1 @ 0x5ae508c87600] n:  65 pts:  33280 pts_time:2.70833 duration:    512 duration_time:0.0416667 fmt:yuv420p cl:left sar:0/1 s:1920x1200 i:P iskey:0 type:B checksum:C3B91F3D plane_checksum:[F296D38E 65A8BDFC AD1D8D95] mean:[121 132 125] stdev:[70.5 6.9 8.9]
[Parsed_showinfo_1 @ 0x5ae508c87600] n:  66 pts:  33792 pts_time:2.75    duration:    512 duration_time:0.0416667 fmt:yuv420p cl:left sar:0/1 s:1920x1200 i:P iskey:0 type:P checksum:F1B8EFC1 plane_checksum:[11E4EDA9 4DC66CC4 58EC9545] mean:[121 132 125] stdev:[70.8 6.9 8.9]
[Parsed_showinfo_1 @ 0x5ae508c87600] n:  67 pts:  34304 pts_time:2.79167 duration:    512 duration_time:0.0416667 fmt:yuv420p cl:left sar:0/1 s:1920x1200 i:P iskey:0 type:B checksum:A6DEB9DF plane_checksum:[06F58FC1 0FF3705D A082B9B2] mean:[121 132 125] stdev:[71.0 6.9 8.8]
[Parsed_showinfo_1 @ 0x5ae508c87600] n:  68 pts:  34816 pts_time:2.83333 duration:    512 duration_time:0.0416667 fmt:yuv420p cl:left sar:0/1 s:1920x1200 i:P iskey:0 type:B checksum:CF36B68C plane_checksum:[C72ED66E 6C3D962A 9E2949E5] mean:[121 132 125] stdev:[71.2 6.9 8.8]
[Parsed_showinfo_1 @ 0x5ae508c87600] n:  69 pts:  35328 pts_time:2.875   duration:    512 duration_time:0.0416667 fmt:yuv420p cl:left sar:0/1 s:1920x1200 i:P iskey:0 type:B checksum:A850C967 plane_checksum:[2E60F181 D1D28F3A BCF5489D] mean:[121 132 125] stdev:[71.3 6.9 8.8]
[Parsed_showinfo_1 @ 0x5ae508c87600] n:  70 pts:  35840 pts_time:2.91667 duration:    512 duration_time:0.0416667 fmt:yuv420p cl:left sar:0/1 s:1920x1200 i:P iskey:0 type:P checksum:FDF9C4DD plane_checksum:[2A63573C B45A656D 50150834] mean:[121 132 125] stdev:[71.3 6.9 8.8]
[Parsed_showinfo_1 @ 0x5ae508c87600] n:  71 pts:  36352 pts_time:2.95833 duration:    512 duration_time:0.0416667 fmt:yuv420p cl:left sar:0/1 s:1920x1200 i:P iskey:0 type:B checksum:24FAFB11 plane_checksum:[F31CE181 30199FC1 88E779C0] mean:[120 132 125] stdev:[71.1 6.9 8.8]
[Parsed_showinfo_1 @ 0x5ae508c87600] n:  72 pts:  36864 pts_time:3       duration:    512 duration_time:0.0416667 fmt:yuv420p cl:left sar:0/1 s:1920x1200 i:P iskey:0 type:B checksum:CCDF864F plane_checksum:[5D76BD7E 1954E5C0 6EA3E2F3] mean:[119 132 125] stdev:[71.0 6.9 8.7]
[Parsed_showinfo_1 @ 0x5ae508c87600] n:  73 pts:  37376 pts_time:3.04167 duration:    512 duration_time:0.0416667 fmt:yuv420p cl:left sar:0/1 s:1920x1200 i:P iskey:0 type:B checksum:C5BC3599 plane_checksum:[37EDAC48 69D1CB5E 1AA2BDD5] mean:[119 132 125] stdev:[71.0 6.9 8.7]
[Parsed_showinfo_1 @ 0x5ae508c87600] n:  74 pts:  37888 pts_time:3.08333 duration:    512 duration_time:0.0416667 fmt:yuv420p cl:left sar:0/1 s:1920x1200 i:P iskey:0 type:B checksum:BD11D2FC plane_checksum:[BC141EB3 6BA42BDF E9C9886A] mean:[119 132 125] stdev:[70.8 6.9 8.7]
[Parsed_showinfo_1 @ 0x5ae508c87600] n:  75 pts:  38400 pts_time:3.125   duration:    512 duration_time:0.0416667 fmt:yuv420p cl:left sar:0/1 s:1920x1200 i:P iskey:0 type:P checksum:D3EE6628 plane_checksum:[B5D72FF4 8F0F3691 92BAFF94] mean:[119 132 125] stdev:[70.7 6.9 8.8]
[Parsed_showinfo_1 @ 0x5ae508c87600] n:  76 pts:  38912 pts_time:3.16667 duration:    512 duration_time:0.0416667 fmt:yuv420p cl:left sar:0/1 s:1920x1200 i:P iskey:0 type:B checksum:B189CAFA plane_checksum:[76E6D725 D89BF771 BA44FC46] mean:[119 132 124] stdev:[70.7 6.9 8.7]
[Parsed_showinfo_1 @ 0x5ae508c87600] n:  77 pts:  39424 pts_time:3.20833 duration:    512 duration_time:0.0416667 fmt:yuv420p cl:left sar:0/1 s:1920x1200 i:P iskey:0 type:B checksum:0048F791 plane_checksum:[16C82FA2 3F861CE9 315EAB06] mean:[119 132 124] stdev:[70.7 6.9 8.8]
[Parsed_showinfo_1 @ 0x5ae508c87600] n:  78 pts:  39936 pts_time:3.25    duration:    512 duration_time:0.0416667 fmt:yuv420p cl:left sar:0/1 s:1920x1200 i:P iskey:0 type:B checksum:A4D63B56 plane_checksum:[D7896035 97AA81BF E9875953] mean:[119 132 124] stdev:[70.7 7.0 8.8]
[Parsed_showinfo_1 @ 0x5ae508c87600] n:  79 pts:  40448 pts_time:3.29167 duration:    512 duration_time:0.0416667 fmt:yuv420p cl:left sar:0/1 s:1920x1200 i:P iskey:0 type:B checksum:841B421F plane_checksum:[04B3275A 42942854 9C9EF262] mean:[119 132 124] stdev:[70.6 7.0 8.8]
[Parsed_showinfo_1 @ 0x5ae508c87600] n:  80 pts:  40960 pts_time:3.33333 duration:    512 duration_time:0.0416667 fmt:yuv420p cl:left sar:0/1 s:1920x1200 i:P iskey:0 type:P checksum:8BF59166 plane_checksum:[973FF49C A6E7D272 C3BDCA3A] mean:[118 132 124] stdev:[70.6 7.0 8.7]
[Parsed_showinfo_1 @ 0x5ae508c87600] n:  81 pts:  41472 pts_time:3.375   duration:    512 duration_time:0.0416667 fmt:yuv420p cl:left sar:0/1 s:1920x1200 i:P iskey:0 type:B checksum:37A3CB98 plane_checksum:[86F64A4B 42DFE50C 14CB9C32] mean:[117 132 124] stdev:[70.3 7.0 8.7]
[Parsed_showinfo_1 @ 0x5ae508c87600] n:  82 pts:  41984 pts_time:3.41667 duration:    512 duration_time:0.0416667 fmt:yuv420p cl:left sar:0/1 s:1920x1200 i:P iskey:0 type:B checksum:2C2F1DCF plane_checksum:[7148B9F2 6F916714 F2F4FCAB] mean:[116 132 124] stdev:[70.2 7.0 8.7]
[Parsed_showinfo_1 @ 0x5ae508c87600] n:  83 pts:  42496 pts_time:3.45833 duration:    512 duration_time:0.0416667 fmt:yuv420p cl:left sar:0/1 s:1920x1200 i:P iskey:0 type:B checksum:0D97AD77 plane_checksum:[D102F99C 6EBBC81C 4C14EBA1] mean:[116 132 124] stdev:[69.9 7.0 8.7]
[Parsed_showinfo_1 @ 0x5ae508c87600] n:  84 pts:  43008 pts_time:3.5     duration:    512 duration_time:0.0416667 fmt:yuv420p cl:left sar:0/1 s:1920x1200 i:P iskey:0 type:P checksum:DFB0FF1D plane_checksum:[0044B123 36CCB905 B02794E6] mean:[115 132 124] stdev:[69.8 7.0 8.7]
[Parsed_showinfo_1 @ 0x5ae508c87600] n:  85 pts:  43520 pts_time:3.54167 duration:    512 duration_time:0.0416667 fmt:yuv420p cl:left sar:0/1 s:1920x1200 i:P iskey:0 type:B checksum:AB53DF44 plane_checksum:[9B8D1A49 66237B87 3A4A4974] mean:[114 132 124] stdev:[69.6 7.0 8.7]
[Parsed_showinfo_1 @ 0x5ae508c87600] n:  86 pts:  44032 pts_time:3.58333 duration:    512 duration_time:0.0416667 fmt:yuv420p cl:left sar:0/1 s:1920x1200 i:P iskey:0 type:B checksum:6E7FBFB2 plane_checksum:[017AD3D7 8512B22E 4B11399E] mean:[113 132 124] stdev:[69.5 6.9 8.7]
[Parsed_showinfo_1 @ 0x5ae508c87600] n:  87 pts:  44544 pts_time:3.625   duration:    512 duration_time:0.0416667 fmt:yuv420p cl:left sar:0/1 s:1920x1200 i:P iskey:0 type:B checksum:DCCEF5C4 plane_checksum:[27CA6DE3 591F5942 DD1D2E9F] mean:[114 133 124] stdev:[69.3 7.0 8.7]
[Parsed_showinfo_1 @ 0x5ae508c87600] n:  88 pts:  45056 pts_time:3.66667 duration:    512 duration_time:0.0416667 fmt:yuv420p cl:left sar:0/1 s:1920x1200 i:P iskey:0 type:P checksum:E0CEC1C9 plane_checksum:[7D156622 FE3B1018 4B814B8F] mean:[113 133 123] stdev:[69.0 7.1 8.9]
frame=   88 fps=0.0 q=-0.0 size=N/A time=00:00:03.66 bitrate=N/A speed=6.63x    [Parsed_showinfo_1 @ 0x5ae508c87600] n:  89 pts:  45568 pts_time:3.70833 duration:    512 duration_time:0.0416667 fmt:yuv420p cl:left sar:0/1 s:1920x1200 i:P iskey:0 type:B checksum:8645E0B2 plane_checksum:[D30AF39C D6280C24 0C6CE0E3] mean:[114 133 123] stdev:[68.7 7.1 8.9]
[Parsed_showinfo_1 @ 0x5ae508c87600] n:  90 pts:  46080 pts_time:3.75    duration:    512 duration_time:0.0416667 fmt:yuv420p cl:left sar:0/1 s:1920x1200 i:P iskey:0 type:B checksum:4ACB5B75 plane_checksum:[E55419D7 098B63AA F6B7DDE5] mean:[114 133 123] stdev:[68.7 7.1 8.9]
[Parsed_showinfo_1 @ 0x5ae508c87600] n:  91 pts:  46592 pts_time:3.79167 duration:    512 duration_time:0.0416667 fmt:yuv420p cl:left sar:0/1 s:1920x1200 i:P iskey:0 type:B checksum:96761BAE plane_checksum:[A913D13C E58372B9 B7E5D79B] mean:[114 133 123] stdev:[67.7 7.3 9.1]
[Parsed_showinfo_1 @ 0x5ae508c87600] n:  92 pts:  47104 pts_time:3.83333 duration:    512 duration_time:0.0416667 fmt:yuv420p cl:left sar:0/1 s:1920x1200 i:P iskey:0 type:B checksum:47937FD8 plane_checksum:[4742ADC3 82AED20E 7FEAFFE9] mean:[112 133 123] stdev:[67.2 7.4 9.3]
[Parsed_showinfo_1 @ 0x5ae508c87600] n:  93 pts:  47616 pts_time:3.875   duration:    512 duration_time:0.0416667 fmt:yuv420p cl:left sar:0/1 s:1920x1200 i:P iskey:0 type:P checksum:0D0D6991 plane_checksum:[8E97DF40 F2E94A4E BAEE3FF4] mean:[113 133 123] stdev:[67.1 7.5 9.4]
[Parsed_showinfo_1 @ 0x5ae508c87600] n:  94 pts:  48128 pts_time:3.91667 duration:    512 duration_time:0.0416667 fmt:yuv420p cl:left sar:0/1 s:1920x1200 i:P iskey:0 type:B checksum:C9D7813C plane_checksum:[64930970 0712DBF6 7BD29BC7] mean:[114 133 123] stdev:[67.3 7.3 9.3]
[Parsed_showinfo_1 @ 0x5ae508c87600] n:  95 pts:  48640 pts_time:3.95833 duration:    512 duration_time:0.0416667 fmt:yuv420p cl:left sar:0/1 s:1920x1200 i:P iskey:0 type:B checksum:A34ED3CE plane_checksum:[FC6B53EA C709B027 A261CFAE] mean:[114 133 123] stdev:[66.7 7.3 9.2]
[Parsed_showinfo_1 @ 0x5ae508c87600] n:  96 pts:  49152 pts_time:4       duration:    512 duration_time:0.0416667 fmt:yuv420p cl:left sar:0/1 s:1920x1200 i:P iskey:0 type:B checksum:D59A2705 plane_checksum:[4947ABDC 154C9518 7DC1E5F3] mean:[114 133 123] stdev:[65.8 7.2 9.2]
[Parsed_showinfo_1 @ 0x5ae508c87600] n:  97 pts:  49664 pts_time:4.04167 duration:    512 duration_time:0.0416667 fmt:yuv420p cl:left sar:0/1 s:1920x1200 i:P iskey:0 type:B checksum:5A2E2084 plane_checksum:[E7FCFB6A EED58FE5 68729517] mean:[113 133 123] stdev:[65.2 7.2 9.1]
[Parsed_showinfo_1 @ 0x5ae508c87600] n:  98 pts:  50176 pts_time:4.08333 duration:    512 duration_time:0.0416667 fmt:yuv420p cl:left sar:0/1 s:1920x1200 i:P iskey:0 type:P checksum:07EB478E plane_checksum:[3279CAEE 1E349E7B 5FE6DE07] mean:[113 133 123] stdev:[64.5 7.1 9.0]
[Parsed_showinfo_1 @ 0x5ae508c87600] n:  99 pts:  50688 pts_time:4.125   duration:    512 duration_time:0.0416667 fmt:yuv420p cl:left sar:0/1 s:1920x1200 i:P iskey:0 type:B checksum:3E354F40 plane_checksum:[EBF97737 E6CE421C A8EA95DE] mean:[112 133 123] stdev:[63.8 7.0 8.9]
[Parsed_showinfo_1 @ 0x5ae508c87600] n: 100 pts:  51200 pts_time:4.16667 duration:    512 duration_time:0.0416667 fmt:yuv420p cl:left sar:0/1 s:1920x1200 i:P iskey:0 type:B checksum:26F6AEF8 plane_checksum:[59121150 B247BEB7 62D9DEE2] mean:[111 133 124] stdev:[63.3 6.9 8.9]
[Parsed_showinfo_1 @ 0x5ae508c87600] n: 101 pts:  51712 pts_time:4.20833 duration:    512 duration_time:0.0416667 fmt:yuv420p cl:left sar:0/1 s:1920x1200 i:P iskey:0 type:B checksum:6FE34F44 plane_checksum:[1CF2E258 305E1E7A 1D9B4E63] mean:[111 133 124] stdev:[63.0 6.7 8.7]
[Parsed_showinfo_1 @ 0x5ae508c87600] n: 102 pts:  52224 pts_time:4.25    duration:    512 duration_time:0.0416667 fmt:yuv420p cl:left sar:0/1 s:1920x1200 i:P iskey:0 type:P checksum:2E584E94 plane_checksum:[8CC61769 FBA0B7DB 51877F41] mean:[111 133 124] stdev:[61.9 6.8 8.7]
[Parsed_showinfo_1 @ 0x5ae508c87600] n: 103 pts:  52736 pts_time:4.29167 duration:    512 duration_time:0.0416667 fmt:yuv420p cl:left sar:0/1 s:1920x1200 i:P iskey:0 type:B checksum:6041CF77 plane_checksum:[85221AFE 4774889B 41492BDE] mean:[111 133 124] stdev:[60.5 6.9 8.9]
[Parsed_showinfo_1 @ 0x5ae508c87600] n: 104 pts:  53248 pts_time:4.33333 duration:    512 duration_time:0.0416667 fmt:yuv420p cl:left sar:0/1 s:1920x1200 i:P iskey:0 type:B checksum:7A2205E7 plane_checksum:[47D2356C 2D30F1CE 722FDE8F] mean:[108 133 123] stdev:[60.7 7.1 9.2]
[Parsed_showinfo_1 @ 0x5ae508c87600] n: 105 pts:  53760 pts_time:4.375   duration:    512 duration_time:0.0416667 fmt:yuv420p cl:left sar:0/1 s:1920x1200 i:P iskey:0 type:P checksum:E7CF0F7A plane_checksum:[38C677FC 638770ED D2A52682] mean:[109 133 123] stdev:[59.4 7.2 9.3]
[Parsed_showinfo_1 @ 0x5ae508c87600] n: 106 pts:  54272 pts_time:4.41667 duration:    512 duration_time:0.0416667 fmt:yuv420p cl:left sar:0/1 s:1920x1200 i:P iskey:0 type:B checksum:BB85EDB9 plane_checksum:[28B9F3C0 5DC1EDE7 470C0C03] mean:[110 134 123] stdev:[57.2 7.5 9.7]
[Parsed_showinfo_1 @ 0x5ae508c87600] n: 107 pts:  54784 pts_time:4.45833 duration:    512 duration_time:0.0416667 fmt:yuv420p cl:left sar:0/1 s:1920x1200 i:P iskey:0 type:P checksum:159CE54A plane_checksum:[BCE02538 777678AA DDDF4768] mean:[109 134 123] stdev:[56.2 7.7 10.0]
[Parsed_showinfo_1 @ 0x5ae508c87600] n: 108 pts:  55296 pts_time:4.5     duration:    512 duration_time:0.0416667 fmt:yuv420p cl:left sar:0/1 s:1920x1200 i:P iskey:0 type:P checksum:1DC7B8AD plane_checksum:[9167998D B88EC8B6 207B565B] mean:[111 134 123] stdev:[56.1 7.6 10.0]
[Parsed_showinfo_1 @ 0x5ae508c87600] n: 109 pts:  55808 pts_time:4.54167 duration:    512 duration_time:0.0416667 fmt:yuv420p cl:left sar:0/1 s:1920x1200 i:P iskey:0 type:B checksum:A423F673 plane_checksum:[C5BB04E8 DC2DC3B3 C8182DD8] mean:[112 133 123] stdev:[55.8 7.4 9.8]
[Parsed_showinfo_1 @ 0x5ae508c87600] n: 110 pts:  56320 pts_time:4.58333 duration:    512 duration_time:0.0416667 fmt:yuv420p cl:left sar:0/1 s:1920x1200 i:P iskey:0 type:B checksum:83C8CD98 plane_checksum:[51A185D4 AF265355 1582F460] mean:[111 133 123] stdev:[55.3 7.4 9.9]
[Parsed_showinfo_1 @ 0x5ae508c87600] n: 111 pts:  56832 pts_time:4.625   duration:    512 duration_time:0.0416667 fmt:yuv420p cl:left sar:0/1 s:1920x1200 i:P iskey:0 type:P checksum:989368F9 plane_checksum:[236B25F6 51893EDF 77830424] mean:[112 133 123] stdev:[54.7 7.6 10.2]
[Parsed_showinfo_1 @ 0x5ae508c87600] n: 112 pts:  57344 pts_time:4.66667 duration:    512 duration_time:0.0416667 fmt:yuv420p cl:left sar:0/1 s:1920x1200 i:P iskey:0 type:B checksum:6B281AC6 plane_checksum:[53BCFD09 CF01A189 17D47C16] mean:[113 133 123] stdev:[54.2 7.6 10.2]
[Parsed_showinfo_1 @ 0x5ae508c87600] n: 113 pts:  57856 pts_time:4.70833 duration:    512 duration_time:0.0416667 fmt:yuv420p cl:left sar:0/1 s:1920x1200 i:P iskey:0 type:P checksum:1F696B2E plane_checksum:[1DEFE265 0ADF4789 63FB4131] mean:[112 133 124] stdev:[53.6 7.5 10.0]
[Parsed_showinfo_1 @ 0x5ae508c87600] n: 114 pts:  58368 pts_time:4.75    duration:    512 duration_time:0.0416667 fmt:yuv420p cl:left sar:0/1 s:1920x1200 i:P iskey:0 type:B checksum:8DA57A1B plane_checksum:[CB0357A1 6CD598CF EEDD899C] mean:[112 133 123] stdev:[52.5 7.6 10.3]
[Parsed_showinfo_1 @ 0x5ae508c87600] n: 115 pts:  58880 pts_time:4.79167 duration:    512 duration_time:0.0416667 fmt:yuv420p cl:left sar:0/1 s:1920x1200 i:P iskey:0 type:B checksum:A8D7059A plane_checksum:[5EE56C6C 7934A3F9 BDE8F517] mean:[113 133 123] stdev:[51.5 7.9 10.9]
[Parsed_showinfo_1 @ 0x5ae508c87600] n: 116 pts:  59392 pts_time:4.83333 duration:    512 duration_time:0.0416667 fmt:yuv420p cl:left sar:0/1 s:1920x1200 i:P iskey:0 type:P checksum:E8F29020 plane_checksum:[BF63BCFF 7C5FC0D9 FCAD1239] mean:[114 134 123] stdev:[51.2 8.2 11.2]
[Parsed_showinfo_1 @ 0x5ae508c87600] n: 117 pts:  59904 pts_time:4.875   duration:    512 duration_time:0.0416667 fmt:yuv420p cl:left sar:0/1 s:1920x1200 i:P iskey:1 type:I checksum:ED5BD42F plane_checksum:[3491FA0D E077E9EF A3E9F015] mean:[114 133 123] stdev:[50.4 8.1 11.2]
[Parsed_showinfo_1 @ 0x5ae508c87600] n: 118 pts:  60416 pts_time:4.91667 duration:    512 duration_time:0.0416667 fmt:yuv420p cl:left sar:0/1 s:1920x1200 i:P iskey:0 type:B checksum:854C0CA7 plane_checksum:[15C39D6A 1B99F4C7 C4E97A58] mean:[114 133 123] stdev:[49.6 7.9 11.1]
[Parsed_showinfo_1 @ 0x5ae508c87600] n: 119 pts:  60928 pts_time:4.95833 duration:    512 duration_time:0.0416667 fmt:yuv420p cl:left sar:0/1 s:1920x1200 i:P iskey:0 type:P checksum:BC090F11 plane_checksum:[25389EAE 73437FD6 5D5DF06F] mean:[114 133 123] stdev:[48.9 8.0 11.2]
[Parsed_showinfo_1 @ 0x5ae508c87600] n: 120 pts:  61440 pts_time:5       duration:    512 duration_time:0.0416667 fmt:yuv420p cl:left sar:0/1 s:1920x1200 i:P iskey:0 type:B checksum:3D12FC4E plane_checksum:[B3C39A6A 14E70319 C5E35ECB] mean:[113 133 123] stdev:[48.6 7.8 11.1]
[Parsed_showinfo_1 @ 0x5ae508c87600] n: 121 pts:  61952 pts_time:5.04167 duration:    512 duration_time:0.0416667 fmt:yuv420p cl:left sar:0/1 s:1920x1200 i:P iskey:0 type:B checksum:285B52E4 plane_checksum:[3C36DDEB D1427B0D FBA0F9CE] mean:[113 133 123] stdev:[50.4 7.7 10.9]
[Parsed_showinfo_1 @ 0x5ae508c87600] n: 122 pts:  62464 pts_time:5.08333 duration:    512 duration_time:0.0416667 fmt:yuv420p cl:left sar:0/1 s:1920x1200 i:P iskey:0 type:B checksum:C3AF012C plane_checksum:[AF5D03B8 697E2E5D 324CCF08] mean:[115 133 123] stdev:[50.0 7.7 10.9]
[Parsed_showinfo_1 @ 0x5ae508c87600] n: 123 pts:  62976 pts_time:5.125   duration:    512 duration_time:0.0416667 fmt:yuv420p cl:left sar:0/1 s:1920x1200 i:P iskey:0 type:P checksum:387FF390 plane_checksum:[B358F313 43FED2CB 18272DA3] mean:[115 133 123] stdev:[49.1 7.8 11.0]
[Parsed_showinfo_1 @ 0x5ae508c87600] n: 124 pts:  63488 pts_time:5.16667 duration:    512 duration_time:0.0416667 fmt:yuv420p cl:left sar:0/1 s:1920x1200 i:P iskey:0 type:P checksum:9440BACC plane_checksum:[967DDD6A 35C5D922 B9730431] mean:[125 135 121] stdev:[44.9 8.4 11.5]
[Parsed_showinfo_1 @ 0x5ae508c87600] n: 125 pts:  64000 pts_time:5.20833 duration:    512 duration_time:0.0416667 fmt:yuv420p cl:left sar:0/1 s:1920x1200 i:P iskey:0 type:P checksum:5BE687F9 plane_checksum:[1392EA69 C27B6333 FD3B3A4E] mean:[123 135 121] stdev:[52.4 8.3 11.3]
[Parsed_showinfo_1 @ 0x5ae508c87600] n: 126 pts:  64512 pts_time:5.25    duration:    512 duration_time:0.0416667 fmt:yuv420p cl:left sar:0/1 s:1920x1200 i:P iskey:0 type:P checksum:38F9D032 plane_checksum:[407C51A0 7C30BEE6 1416BF9D] mean:[126 135 121] stdev:[48.0 8.4 11.6]
[Parsed_showinfo_1 @ 0x5ae508c87600] n: 127 pts:  65024 pts_time:5.29167 duration:    512 duration_time:0.0416667 fmt:yuv420p cl:left sar:0/1 s:1920x1200 i:P iskey:0 type:B checksum:982159CD plane_checksum:[EE4CB4EB D16AA08D A5340446] mean:[120 134 122] stdev:[47.5 7.9 11.1]
[Parsed_showinfo_1 @ 0x5ae508c87600] n: 128 pts:  65536 pts_time:5.33333 duration:    512 duration_time:0.0416667 fmt:yuv420p cl:left sar:0/1 s:1920x1200 i:P iskey:0 type:B checksum:2540FF49 plane_checksum:[0C0E7FBD 0C15CC37 995CB346] mean:[123 134 122] stdev:[47.1 7.9 11.1]
[Parsed_showinfo_1 @ 0x5ae508c87600] n: 129 pts:  66048 pts_time:5.375   duration:    512 duration_time:0.0416667 fmt:yuv420p cl:left sar:0/1 s:1920x1200 i:P iskey:0 type:B checksum:5113A625 plane_checksum:[CF1A4C51 1861118C 74994848] mean:[125 135 121] stdev:[48.5 8.0 11.1]
[Parsed_showinfo_1 @ 0x5ae508c87600] n: 130 pts:  66560 pts_time:5.41667 duration:    512 duration_time:0.0416667 fmt:yuv420p cl:left sar:0/1 s:1920x1200 i:P iskey:0 type:P checksum:E9D5137C plane_checksum:[A793E4D6 F17CE562 5D7A4926] mean:[129 135 121] stdev:[45.9 8.1 11.3]
[Parsed_showinfo_1 @ 0x5ae508c87600] n: 131 pts:  67072 pts_time:5.45833 duration:    512 duration_time:0.0416667 fmt:yuv420p cl:left sar:0/1 s:1920x1200 i:P iskey:0 type:B checksum:243847BF plane_checksum:[F3E193E8 C41E709E 3E14432A] mean:[132 134 122] stdev:[47.0 7.8 11.0]
[Parsed_showinfo_1 @ 0x5ae508c87600] n: 132 pts:  67584 pts_time:5.5     duration:    512 duration_time:0.0416667 fmt:yuv420p cl:left sar:0/1 s:1920x1200 i:P iskey:0 type:P checksum:BFFD2EEA plane_checksum:[2D3D0420 F83B46FE DD16E3BD] mean:[131 134 122] stdev:[49.4 7.6 10.9]
[Parsed_showinfo_1 @ 0x5ae508c87600] n: 133 pts:  68096 pts_time:5.54167 duration:    512 duration_time:0.0416667 fmt:yuv420p cl:left sar:0/1 s:1920x1200 i:P iskey:0 type:B checksum:68BFB8C7 plane_checksum:[B52BF4A8 C7BC04D1 5AE6BF3F] mean:[128 134 122] stdev:[50.4 7.5 10.7]
[Parsed_showinfo_1 @ 0x5ae508c87600] n: 134 pts:  68608 pts_time:5.58333 duration:    512 duration_time:0.0416667 fmt:yuv420p cl:left sar:0/1 s:1920x1200 i:P iskey:0 type:B checksum:1C88FB58 plane_checksum:[C5474863 14BC64CB 5A914E2A] mean:[126 135 121] stdev:[50.0 7.8 11.1]
[Parsed_showinfo_1 @ 0x5ae508c87600] n: 135 pts:  69120 pts_time:5.625   duration:    512 duration_time:0.0416667 fmt:yuv420p cl:left sar:0/1 s:1920x1200 i:P iskey:0 type:B checksum:0A0CC41C plane_checksum:[26D43BD7 FD18E279 D23FA5BD] mean:[129 135 121] stdev:[49.9 7.9 11.2]
[Parsed_showinfo_1 @ 0x5ae508c87600] n: 136 pts:  69632 pts_time:5.66667 duration:    512 duration_time:0.0416667 fmt:yuv420p cl:left sar:0/1 s:1920x1200 i:P iskey:0 type:P checksum:6F06DF0A plane_checksum:[D0AEB7F5 22B29B4F FE388BB7] mean:[131 135 121] stdev:[50.5 7.9 11.1]
[Parsed_showinfo_1 @ 0x5ae508c87600] n: 137 pts:  70144 pts_time:5.70833 duration:    512 duration_time:0.0416667 fmt:yuv420p cl:left sar:0/1 s:1920x1200 i:P iskey:0 type:B checksum:397CEDDF plane_checksum:[431C1711 347D85A8 C1BE5126] mean:[133 135 121] stdev:[51.5 7.7 10.9]
[Parsed_showinfo_1 @ 0x5ae508c87600] n: 138 pts:  70656 pts_time:5.75    duration:    512 duration_time:0.0416667 fmt:yuv420p cl:left sar:0/1 s:1920x1200 i:P iskey:0 type:B checksum:C15F315F plane_checksum:[4189972B DDF86E99 57E02B8C] mean:[134 135 121] stdev:[51.6 7.7 10.9]
[Parsed_showinfo_1 @ 0x5ae508c87600] n: 139 pts:  71168 pts_time:5.79167 duration:    512 duration_time:0.0416667 fmt:yuv420p cl:left sar:0/1 s:1920x1200 i:P iskey:0 type:B checksum:752853C6 plane_checksum:[4401AA6B 7DD18F0B EA081A41] mean:[136 135 121] stdev:[51.6 7.7 10.8]
[Parsed_showinfo_1 @ 0x5ae508c87600] n: 140 pts:  71680 pts_time:5.83333 duration:    512 duration_time:0.0416667 fmt:yuv420p cl:left sar:0/1 s:1920x1200 i:P iskey:0 type:P checksum:F019E732 plane_checksum:[6E2194FA 44F9C669 2D808BC0] mean:[136 135 121] stdev:[52.3 7.8 10.8]
[Parsed_showinfo_1 @ 0x5ae508c87600] n: 141 pts:  72192 pts_time:5.875   duration:    512 duration_time:0.0416667 fmt:yuv420p cl:left sar:0/1 s:1920x1200 i:P iskey:0 type:B checksum:8F54D461 plane_checksum:[7232351E A3BE2E78 C8F270CB] mean:[138 135 121] stdev:[51.7 7.9 11.0]
[Parsed_showinfo_1 @ 0x5ae508c87600] n: 142 pts:  72704 pts_time:5.91667 duration:    512 duration_time:0.0416667 fmt:yuv420p cl:left sar:0/1 s:1920x1200 i:P iskey:0 type:B checksum:2819E234 plane_checksum:[829EEA31 8CA31C55 D6E2DB9F] mean:[139 136 120] stdev:[52.4 7.9 10.9]
[Parsed_showinfo_1 @ 0x5ae508c87600] n: 143 pts:  73216 pts_time:5.95833 duration:    512 duration_time:0.0416667 fmt:yuv420p cl:left sar:0/1 s:1920x1200 i:P iskey:0 type:B checksum:C780495C plane_checksum:[8AEE2BEC 85C36A6E 68AFB2F3] mean:[139 136 120] stdev:[51.9 7.9 11.0]
[Parsed_showinfo_1 @ 0x5ae508c87600] n: 144 pts:  73728 pts_time:6       duration:    512 duration_time:0.0416667 fmt:yuv420p cl:left sar:0/1 s:1920x1200 i:P iskey:0 type:B checksum:89E13B46 plane_checksum:[5EA3BB2A FF21852B 8C7EFAD3] mean:[138 136 120] stdev:[51.6 8.0 11.0]
[Parsed_showinfo_1 @ 0x5ae508c87600] n: 145 pts:  74240 pts_time:6.04167 duration:    512 duration_time:0.0416667 fmt:yuv420p cl:left sar:0/1 s:1920x1200 i:P iskey:0 type:P checksum:B70BF595 plane_checksum:[57488EAA 4FA3AD4B 5D86B991] mean:[136 136 120] stdev:[52.1 7.9 11.0]
[Parsed_showinfo_1 @ 0x5ae508c87600] n: 146 pts:  74752 pts_time:6.08333 duration:    512 duration_time:0.0416667 fmt:yuv420p cl:left sar:0/1 s:1920x1200 i:P iskey:0 type:B checksum:B28F6FC0 plane_checksum:[C0E18F6A AB692B55 DB3DB4F2] mean:[136 136 120] stdev:[51.6 7.9 11.0]
[Parsed_showinfo_1 @ 0x5ae508c87600] n: 147 pts:  75264 pts_time:6.125   duration:    512 duration_time:0.0416667 fmt:yuv420p cl:left sar:0/1 s:1920x1200 i:P iskey:0 type:B checksum:4583D81F plane_checksum:[CE34E61C 08BB1653 3177DBA1] mean:[136 136 120] stdev:[52.0 7.9 10.9]
[Parsed_showinfo_1 @ 0x5ae508c87600] n: 148 pts:  75776 pts_time:6.16667 duration:    512 duration_time:0.0416667 fmt:yuv420p cl:left sar:0/1 s:1920x1200 i:P iskey:0 type:B checksum:D9D9C744 plane_checksum:[4E00A08B 8DD0ED22 43E13988] mean:[136 136 120] stdev:[52.5 7.9 10.8]
[Parsed_showinfo_1 @ 0x5ae508c87600] n: 149 pts:  76288 pts_time:6.20833 duration:    512 duration_time:0.0416667 fmt:yuv420p cl:left sar:0/1 s:1920x1200 i:P iskey:0 type:P checksum:4F613CC1 plane_checksum:[789D9A04 F233049E DCB79E10] mean:[136 136 120] stdev:[52.8 7.9 10.9]
[Parsed_showinfo_1 @ 0x5ae508c87600] n: 150 pts:  76800 pts_time:6.25    duration:    512 duration_time:0.0416667 fmt:yuv420p cl:left sar:0/1 s:1920x1200 i:P iskey:0 type:B checksum:60B44100 plane_checksum:[D84113B0 169F5EC9 FC8FCE78] mean:[136 136 120] stdev:[52.9 7.9 10.8]
[Parsed_showinfo_1 @ 0x5ae508c87600] n: 151 pts:  77312 pts_time:6.29167 duration:    512 duration_time:0.0416667 fmt:yuv420p cl:left sar:0/1 s:1920x1200 i:P iskey:0 type:B checksum:2B4A09B4 plane_checksum:[AB30260B EF8C61E5 E44A81B5] mean:[136 136 120] stdev:[53.0 7.9 10.8]
[Parsed_showinfo_1 @ 0x5ae508c87600] n: 152 pts:  77824 pts_time:6.33333 duration:    512 duration_time:0.0416667 fmt:yuv420p cl:left sar:0/1 s:1920x1200 i:P iskey:0 type:B checksum:87F9D926 plane_checksum:[9FF9C679 B99A88FD 909189A1] mean:[136 136 121] stdev:[53.0 7.9 10.7]
[Parsed_showinfo_1 @ 0x5ae508c87600] n: 153 pts:  78336 pts_time:6.375   duration:    512 duration_time:0.0416667 fmt:yuv420p cl:left sar:0/1 s:1920x1200 i:P iskey:0 type:P checksum:7EAF2210 plane_checksum:[AA68FD28 85F91653 62F80E86] mean:[134 136 121] stdev:[53.1 7.8 10.9]
[Parsed_showinfo_1 @ 0x5ae508c87600] n: 154 pts:  78848 pts_time:6.41667 duration:    512 duration_time:0.0416667 fmt:yuv420p cl:left sar:0/1 s:1920x1200 i:P iskey:0 type:B checksum:D0AB86C6 plane_checksum:[8C62C329 4F880712 5A5FBC7C] mean:[133 136 121] stdev:[52.9 7.9 10.9]
[Parsed_showinfo_1 @ 0x5ae508c87600] n: 155 pts:  79360 pts_time:6.45833 duration:    512 duration_time:0.0416667 fmt:yuv420p cl:left sar:0/1 s:1920x1200 i:P iskey:0 type:B checksum:E31E27A5 plane_checksum:[720D1958 11383CB7 B7A2D187] mean:[133 136 121] stdev:[52.2 7.9 11.0]
[Parsed_showinfo_1 @ 0x5ae508c87600] n: 156 pts:  79872 pts_time:6.5     duration:    512 duration_time:0.0416667 fmt:yuv420p cl:left sar:0/1 s:1920x1200 i:P iskey:0 type:B checksum:C90D9AD2 plane_checksum:[1D2852E8 2431B236 96AA95A5] mean:[133 136 122] stdev:[52.0 7.9 11.0]
[Parsed_showinfo_1 @ 0x5ae508c87600] n: 157 pts:  80384 pts_time:6.54167 duration:    512 duration_time:0.0416667 fmt:yuv420p cl:left sar:0/1 s:1920x1200 i:P iskey:0 type:B checksum:B8737CB7 plane_checksum:[1F57B89C C2A9987A A8772B92] mean:[132 136 122] stdev:[52.9 7.9 10.7]
[Parsed_showinfo_1 @ 0x5ae508c87600] n: 158 pts:  80896 pts_time:6.58333 duration:    512 duration_time:0.0416667 fmt:yuv420p cl:left sar:0/1 s:1920x1200 i:P iskey:0 type:P checksum:C6139957 plane_checksum:[2AC1D645 E3B24DDE CDBC7525] mean:[132 136 122] stdev:[53.1 7.8 10.7]
[Parsed_showinfo_1 @ 0x5ae508c87600] n: 159 pts:  81408 pts_time:6.625   duration:    512 duration_time:0.0416667 fmt:yuv420p cl:left sar:0/1 s:1920x1200 i:P iskey:0 type:B checksum:F026A973 plane_checksum:[BC4D2BB9 31DDC69E 0808B70D] mean:[132 135 122] stdev:[52.9 7.8 10.7]
[Parsed_showinfo_1 @ 0x5ae508c87600] n: 160 pts:  81920 pts_time:6.66667 duration:    512 duration_time:0.0416667 fmt:yuv420p cl:left sar:0/1 s:1920x1200 i:P iskey:0 type:B checksum:71D50A72 plane_checksum:[DC1D5509 59BD8B57 01382A03] mean:[133 135 122] stdev:[52.5 7.8 10.7]
[Parsed_showinfo_1 @ 0x5ae508c87600] n: 161 pts:  82432 pts_time:6.70833 duration:    512 duration_time:0.0416667 fmt:yuv420p cl:left sar:0/1 s:1920x1200 i:P iskey:0 type:B checksum:40165AE6 plane_checksum:[ADF3BFFB 90AFF562 6441A56B] mean:[133 135 122] stdev:[52.7 7.8 10.7]
[Parsed_showinfo_1 @ 0x5ae508c87600] n: 162 pts:  82944 pts_time:6.75    duration:    512 duration_time:0.0416667 fmt:yuv420p cl:left sar:0/1 s:1920x1200 i:P iskey:0 type:B checksum:A718E44F plane_checksum:[20F123EA 31231CDF 3835A386] mean:[132 135 123] stdev:[52.9 7.8 10.6]
[Parsed_showinfo_1 @ 0x5ae508c87600] n: 163 pts:  83456 pts_time:6.79167 duration:    512 duration_time:0.0416667 fmt:yuv420p cl:left sar:0/1 s:1920x1200 i:P iskey:0 type:P checksum:78D9CAFF plane_checksum:[ADD4DB09 32BC1DD0 425BD217] mean:[132 135 123] stdev:[53.0 7.7 10.6]
[Parsed_showinfo_1 @ 0x5ae508c87600] n: 164 pts:  83968 pts_time:6.83333 duration:    512 duration_time:0.0416667 fmt:yuv420p cl:left sar:0/1 s:1920x1200 i:P iskey:0 type:B checksum:8FC315A0 plane_checksum:[755C4468 227320B7 1F08B072] mean:[132 135 123] stdev:[52.8 7.7 10.7]
[Parsed_showinfo_1 @ 0x5ae508c87600] n: 165 pts:  84480 pts_time:6.875   duration:    512 duration_time:0.0416667 fmt:yuv420p cl:left sar:0/1 s:1920x1200 i:P iskey:0 type:B checksum:AE2818D9 plane_checksum:[B0BA705F E3C701BF CD6CA6AC] mean:[132 135 123] stdev:[52.9 7.7 10.7]
[Parsed_showinfo_1 @ 0x5ae508c87600] n: 166 pts:  84992 pts_time:6.91667 duration:    512 duration_time:0.0416667 fmt:yuv420p cl:left sar:0/1 s:1920x1200 i:P iskey:0 type:P checksum:B92277D6 plane_checksum:[D7773DDD 97D1E059 009D5991] mean:[132 135 123] stdev:[52.9 7.7 10.7]
[Parsed_showinfo_1 @ 0x5ae508c87600] n: 167 pts:  85504 pts_time:6.95833 duration:    512 duration_time:0.0416667 fmt:yuv420p cl:left sar:0/1 s:1920x1200 i:P iskey:0 type:B checksum:164EE3B2 plane_checksum:[10DBD553 437DF594 B9FF18BC] mean:[132 135 123] stdev:[52.8 7.7 10.7]
[Parsed_showinfo_1 @ 0x5ae508c87600] n: 168 pts:  86016 pts_time:7       duration:    512 duration_time:0.0416667 fmt:yuv420p cl:left sar:0/1 s:1920x1200 i:P iskey:0 type:B checksum:39EDB313 plane_checksum:[499BEDB6 F01BC72B 5E97FE14] mean:[132 135 123] stdev:[52.8 7.7 10.7]
[Parsed_showinfo_1 @ 0x5ae508c87600] n: 169 pts:  86528 pts_time:7.04167 duration:    512 duration_time:0.0416667 fmt:yuv420p cl:left sar:0/1 s:1920x1200 i:P iskey:0 type:B checksum:87CD9845 plane_checksum:[55A20E70 352E6AA0 311E1F35] mean:[132 135 124] stdev:[52.7 7.7 10.7]
[Parsed_showinfo_1 @ 0x5ae508c87600] n: 170 pts:  87040 pts_time:7.08333 duration:    512 duration_time:0.0416667 fmt:yuv420p cl:left sar:0/1 s:1920x1200 i:P iskey:0 type:B checksum:6B07084A plane_checksum:[D756DAC7 DCCA3EE3 C584EE82] mean:[132 135 124] stdev:[53.0 7.7 10.6]
[Parsed_showinfo_1 @ 0x5ae508c87600] n: 171 pts:  87552 pts_time:7.125   duration:    512 duration_time:0.0416667 fmt:yuv420p cl:left sar:0/1 s:1920x1200 i:P iskey:0 type:P checksum:CF68A21B plane_checksum:[DDD75AD9 C27E08B7 405D3E8B] mean:[132 135 124] stdev:[53.1 7.7 10.6]
[Parsed_showinfo_1 @ 0x5ae508c87600] n: 172 pts:  88064 pts_time:7.16667 duration:    512 duration_time:0.0416667 fmt:yuv420p cl:left sar:0/1 s:1920x1200 i:P iskey:0 type:B checksum:F26B39E4 plane_checksum:[BA0FC38F 77632C56 EB6449F0] mean:[132 135 124] stdev:[53.0 7.7 10.6]
[Parsed_showinfo_1 @ 0x5ae508c87600] n: 173 pts:  88576 pts_time:7.20833 duration:    512 duration_time:0.0416667 fmt:yuv420p cl:left sar:0/1 s:1920x1200 i:P iskey:0 type:B checksum:D266A940 plane_checksum:[0E6F4EF8 0C7A25A5 66DD34A3] mean:[132 135 124] stdev:[53.1 7.7 10.6]
[Parsed_showinfo_1 @ 0x5ae508c87600] n: 174 pts:  89088 pts_time:7.25    duration:    512 duration_time:0.0416667 fmt:yuv420p cl:left sar:0/1 s:1920x1200 i:P iskey:0 type:B checksum:01FEEA5E plane_checksum:[C4ADC169 8B5F1ABC 9FFB0E39] mean:[132 135 124] stdev:[53.1 7.6 10.7]
[Parsed_showinfo_1 @ 0x5ae508c87600] n: 175 pts:  89600 pts_time:7.29167 duration:    512 duration_time:0.0416667 fmt:yuv420p cl:left sar:0/1 s:1920x1200 i:P iskey:0 type:B checksum:A6266CDD plane_checksum:[1477B941 94FB2F9A 863683F3] mean:[132 135 124] stdev:[53.1 7.6 10.7]
[Parsed_showinfo_1 @ 0x5ae508c87600] n: 176 pts:  90112 pts_time:7.33333 duration:    512 duration_time:0.0416667 fmt:yuv420p cl:left sar:0/1 s:1920x1200 i:P iskey:0 type:P checksum:B3122A73 plane_checksum:[4BA70546 79B00E50 879616DD] mean:[132 135 124] stdev:[53.0 7.6 10.7]
